<?xml version="1.0" encoding="UTF-8" standalone="no"?>
<svg
   xmlns:dc="http://purl.org/dc/elements/1.1/"
   xmlns:cc="http://creativecommons.org/ns#"
   xmlns:rdf="http://www.w3.org/1999/02/22-rdf-syntax-ns#"
   xmlns:svg="http://www.w3.org/2000/svg"
   xmlns="http://www.w3.org/2000/svg"
   xmlns:sodipodi="http://sodipodi.sourceforge.net/DTD/sodipodi-0.dtd"
   xmlns:inkscape="http://www.inkscape.org/namespaces/inkscape"
   enable-background="new 0 0 56.693 56.693"
   height="56.693px"
   id="Layer_1"
   version="1.1"
   viewBox="0 0 56.693 56.693"
   width="56.693px"
   xml:space="preserve"
   sodipodi:docname="linkedin_icon.svg"
   inkscape:version="1.0.2-2 (e86c870879, 2021-01-15)"><metadata
     id="metadata857"><rdf:RDF><cc:Work
         rdf:about=""><dc:format>image/svg+xml</dc:format><dc:type
           rdf:resource="http://purl.org/dc/dcmitype/StillImage" /></cc:Work></rdf:RDF></metadata><defs
     id="defs855" /><sodipodi:namedview
     pagecolor="#ffffff"
     bordercolor="#666666"
     borderopacity="1"
     objecttolerance="10"
     gridtolerance="10"
     guidetolerance="10"
     inkscape:pageopacity="0"
     inkscape:pageshadow="2"
     inkscape:window-width="1920"
     inkscape:window-height="1001"
     id="namedview853"
     showgrid="false"
     inkscape:zoom="12.664703"
     inkscape:cx="28.3465"
     inkscape:cy="28.3465"
     inkscape:window-x="1911"
     inkscape:window-y="-9"
     inkscape:window-maximized="1"
     inkscape:current-layer="g850"
     inkscape:document-rotation="0" /><g
     id="g850"><path
       d="M30.071,27.101v-0.077c-0.016,0.026-0.033,0.052-0.05,0.077H30.071z"
       id="path846" /><path
       d="M49.265,4.667H7.145c-2.016,0-3.651,1.596-3.651,3.563v42.613c0,1.966,1.635,3.562,3.651,3.562h42.12   c2.019,0,3.654-1.597,3.654-3.562V8.23C52.919,6.262,51.283,4.667,49.265,4.667z M18.475,46.304h-7.465V23.845h7.465V46.304z    M14.743,20.777h-0.05c-2.504,0-4.124-1.725-4.124-3.88c0-2.203,1.67-3.88,4.223-3.88c2.554,0,4.125,1.677,4.175,3.88   C18.967,19.052,17.345,20.777,14.743,20.777z M45.394,46.304h-7.465V34.286c0-3.018-1.08-5.078-3.781-5.078   c-2.062,0-3.29,1.389-3.831,2.731c-0.197,0.479-0.245,1.149-0.245,1.821v12.543h-7.465c0,0,0.098-20.354,0-22.459h7.465v3.179   c0.992-1.53,2.766-3.709,6.729-3.709c4.911,0,8.594,3.211,8.594,10.11V46.304z"
       fill="#392e53"
       id="path848"
       style="fill:#201e3d;fill-opacity:1" /></g></svg>
